<mxfile host="app.diagrams.net" modified="2024-02-18T22:35:30.390Z" agent="Mozilla/5.0 (Macintosh; Intel Mac OS X 10_15_7) AppleWebKit/537.36 (KHTML, like Gecko) Chrome/121.0.0.0 Safari/537.36" etag="tiYOIkiWvHuuu0mCwRe9" version="23.1.5" type="device">
  <diagram name="Page-1" id="chC7KzbDLUU-x_l0YoqZ">
    <mxGraphModel dx="1405" dy="845" grid="1" gridSize="10" guides="1" tooltips="1" connect="1" arrows="1" fold="1" page="1" pageScale="1" pageWidth="850" pageHeight="1100" math="0" shadow="0">
      <root>
        <mxCell id="0" />
        <mxCell id="1" parent="0" />
        <mxCell id="CBktLxQmQphNjtBsB0Eo-3" value="" style="whiteSpace=wrap;html=1;" vertex="1" parent="1">
          <mxGeometry x="40" y="40" width="360" height="220" as="geometry" />
        </mxCell>
        <mxCell id="CBktLxQmQphNjtBsB0Eo-19" value="" style="edgeStyle=orthogonalEdgeStyle;rounded=0;orthogonalLoop=1;jettySize=auto;html=1;" edge="1" parent="1" source="CBktLxQmQphNjtBsB0Eo-4" target="CBktLxQmQphNjtBsB0Eo-18">
          <mxGeometry relative="1" as="geometry" />
        </mxCell>
        <mxCell id="CBktLxQmQphNjtBsB0Eo-20" value="Game URLs stored in history" style="edgeLabel;html=1;align=center;verticalAlign=middle;resizable=0;points=[];" vertex="1" connectable="0" parent="CBktLxQmQphNjtBsB0Eo-19">
          <mxGeometry x="-0.1728" relative="1" as="geometry">
            <mxPoint x="33" as="offset" />
          </mxGeometry>
        </mxCell>
        <mxCell id="CBktLxQmQphNjtBsB0Eo-4" value="" style="dashed=0;outlineConnect=0;html=1;align=center;labelPosition=center;verticalLabelPosition=bottom;verticalAlign=top;shape=mxgraph.weblogos.chrome" vertex="1" parent="1">
          <mxGeometry x="60" y="50" width="74.8" height="75.4" as="geometry" />
        </mxCell>
        <mxCell id="CBktLxQmQphNjtBsB0Eo-11" value="Local Machine" style="text;html=1;align=center;verticalAlign=middle;resizable=0;points=[];autosize=1;strokeColor=none;fillColor=none;" vertex="1" parent="1">
          <mxGeometry x="40" y="10" width="100" height="30" as="geometry" />
        </mxCell>
        <mxCell id="CBktLxQmQphNjtBsB0Eo-13" value="Minesweeper games are played on minesweeper.online" style="text;strokeColor=none;align=center;fillColor=none;html=1;verticalAlign=middle;whiteSpace=wrap;rounded=0;" vertex="1" parent="1">
          <mxGeometry x="145" y="62.7" width="120" height="50" as="geometry" />
        </mxCell>
        <mxCell id="CBktLxQmQphNjtBsB0Eo-18" value="H" style="ellipse;html=1;" vertex="1" parent="1">
          <mxGeometry x="82.4" y="190" width="30" height="30" as="geometry" />
        </mxCell>
        <mxCell id="CBktLxQmQphNjtBsB0Eo-26" style="edgeStyle=orthogonalEdgeStyle;rounded=0;orthogonalLoop=1;jettySize=auto;html=1;entryX=1;entryY=0.5;entryDx=0;entryDy=0;" edge="1" parent="1" source="CBktLxQmQphNjtBsB0Eo-21" target="CBktLxQmQphNjtBsB0Eo-18">
          <mxGeometry relative="1" as="geometry" />
        </mxCell>
        <mxCell id="CBktLxQmQphNjtBsB0Eo-27" value="python application&lt;br&gt;pulls URLs and timestamps&lt;br&gt;from Chrome history" style="edgeLabel;html=1;align=center;verticalAlign=middle;resizable=0;points=[];" vertex="1" connectable="0" parent="CBktLxQmQphNjtBsB0Eo-26">
          <mxGeometry x="-0.0826" y="1" relative="1" as="geometry">
            <mxPoint as="offset" />
          </mxGeometry>
        </mxCell>
        <mxCell id="CBktLxQmQphNjtBsB0Eo-30" value="" style="whiteSpace=wrap;html=1;" vertex="1" parent="1">
          <mxGeometry x="40" y="340" width="370" height="460" as="geometry" />
        </mxCell>
        <mxCell id="CBktLxQmQphNjtBsB0Eo-31" value="AWS" style="text;html=1;align=center;verticalAlign=middle;resizable=0;points=[];autosize=1;strokeColor=none;fillColor=none;" vertex="1" parent="1">
          <mxGeometry x="40" y="310" width="50" height="30" as="geometry" />
        </mxCell>
        <mxCell id="CBktLxQmQphNjtBsB0Eo-5" value="Amazon SNS" style="sketch=0;outlineConnect=0;fontColor=#232F3E;gradientColor=none;strokeColor=#ffffff;fillColor=#232F3E;dashed=0;verticalLabelPosition=middle;verticalAlign=bottom;align=center;html=1;whiteSpace=wrap;fontSize=10;fontStyle=1;spacing=3;shape=mxgraph.aws4.productIcon;prIcon=mxgraph.aws4.sns;" vertex="1" parent="1">
          <mxGeometry x="297.25" y="360" width="68.5" height="90" as="geometry" />
        </mxCell>
        <mxCell id="CBktLxQmQphNjtBsB0Eo-32" value="" style="edgeStyle=orthogonalEdgeStyle;rounded=0;orthogonalLoop=1;jettySize=auto;html=1;" edge="1" parent="1" source="CBktLxQmQphNjtBsB0Eo-21" target="CBktLxQmQphNjtBsB0Eo-5">
          <mxGeometry relative="1" as="geometry" />
        </mxCell>
        <mxCell id="CBktLxQmQphNjtBsB0Eo-33" value="Payload of URLs and timestamps sent&lt;br&gt;to SNS using Boto3" style="edgeLabel;html=1;align=center;verticalAlign=middle;resizable=0;points=[];" vertex="1" connectable="0" parent="CBktLxQmQphNjtBsB0Eo-32">
          <mxGeometry x="-0.0378" y="1" relative="1" as="geometry">
            <mxPoint as="offset" />
          </mxGeometry>
        </mxCell>
        <mxCell id="CBktLxQmQphNjtBsB0Eo-21" value="minetracker-publisher" style="sketch=0;outlineConnect=0;fontColor=#232F3E;gradientColor=none;fillColor=#232F3D;strokeColor=none;dashed=0;verticalLabelPosition=top;verticalAlign=bottom;align=center;html=1;fontSize=12;fontStyle=0;aspect=fixed;pointerEvents=1;shape=mxgraph.aws4.source_code;labelPosition=center;" vertex="1" parent="1">
          <mxGeometry x="303" y="166" width="57" height="78" as="geometry" />
        </mxCell>
        <mxCell id="CBktLxQmQphNjtBsB0Eo-37" value="" style="edgeStyle=orthogonalEdgeStyle;rounded=0;orthogonalLoop=1;jettySize=auto;html=1;" edge="1" parent="1" source="CBktLxQmQphNjtBsB0Eo-6" target="CBktLxQmQphNjtBsB0Eo-36">
          <mxGeometry relative="1" as="geometry" />
        </mxCell>
        <mxCell id="CBktLxQmQphNjtBsB0Eo-38" value="failures written to DLQ" style="edgeLabel;html=1;align=center;verticalAlign=middle;resizable=0;points=[];" vertex="1" connectable="0" parent="CBktLxQmQphNjtBsB0Eo-37">
          <mxGeometry x="-0.0857" relative="1" as="geometry">
            <mxPoint y="58" as="offset" />
          </mxGeometry>
        </mxCell>
        <mxCell id="CBktLxQmQphNjtBsB0Eo-41" style="edgeStyle=orthogonalEdgeStyle;rounded=0;orthogonalLoop=1;jettySize=auto;html=1;" edge="1" parent="1" source="CBktLxQmQphNjtBsB0Eo-6" target="CBktLxQmQphNjtBsB0Eo-7">
          <mxGeometry relative="1" as="geometry" />
        </mxCell>
        <mxCell id="CBktLxQmQphNjtBsB0Eo-42" value="valid scraped game &lt;br&gt;data written to DynamoDB" style="edgeLabel;html=1;align=center;verticalAlign=middle;resizable=0;points=[];" vertex="1" connectable="0" parent="CBktLxQmQphNjtBsB0Eo-41">
          <mxGeometry x="0.4928" relative="1" as="geometry">
            <mxPoint y="7" as="offset" />
          </mxGeometry>
        </mxCell>
        <mxCell id="CBktLxQmQphNjtBsB0Eo-6" value="minetracker-lambda" style="sketch=0;outlineConnect=0;fontColor=#232F3E;gradientColor=none;strokeColor=#ffffff;fillColor=#232F3E;dashed=0;verticalLabelPosition=middle;verticalAlign=bottom;align=center;html=1;whiteSpace=wrap;fontSize=10;fontStyle=1;spacing=3;shape=mxgraph.aws4.productIcon;prIcon=mxgraph.aws4.lambda;" vertex="1" parent="1">
          <mxGeometry x="187.5" y="550" width="65" height="100" as="geometry" />
        </mxCell>
        <mxCell id="CBktLxQmQphNjtBsB0Eo-34" value="auto-invocation" style="edgeStyle=orthogonalEdgeStyle;rounded=0;orthogonalLoop=1;jettySize=auto;html=1;" edge="1" parent="1" source="CBktLxQmQphNjtBsB0Eo-5" target="CBktLxQmQphNjtBsB0Eo-6">
          <mxGeometry relative="1" as="geometry" />
        </mxCell>
        <mxCell id="CBktLxQmQphNjtBsB0Eo-35" value="game data is scraped from the URL" style="text;strokeColor=none;align=center;fillColor=none;html=1;verticalAlign=middle;whiteSpace=wrap;rounded=0;" vertex="1" parent="1">
          <mxGeometry x="252.5" y="550" width="125.2" height="30" as="geometry" />
        </mxCell>
        <mxCell id="CBktLxQmQphNjtBsB0Eo-36" value="Amazon SQS" style="sketch=0;outlineConnect=0;fontColor=#232F3E;gradientColor=none;strokeColor=#ffffff;fillColor=#232F3E;dashed=0;verticalLabelPosition=middle;verticalAlign=bottom;align=center;html=1;whiteSpace=wrap;fontSize=10;fontStyle=1;spacing=3;shape=mxgraph.aws4.productIcon;prIcon=mxgraph.aws4.sqs;" vertex="1" parent="1">
          <mxGeometry x="77.5" y="700" width="60" height="88" as="geometry" />
        </mxCell>
        <mxCell id="CBktLxQmQphNjtBsB0Eo-7" value="Amazon DynamoDB" style="sketch=0;outlineConnect=0;fontColor=#232F3E;gradientColor=none;strokeColor=#ffffff;fillColor=#232F3E;dashed=0;verticalLabelPosition=middle;verticalAlign=bottom;align=center;html=1;whiteSpace=wrap;fontSize=10;fontStyle=1;spacing=3;shape=mxgraph.aws4.productIcon;prIcon=mxgraph.aws4.dynamodb;" vertex="1" parent="1">
          <mxGeometry x="308.75" y="700" width="57" height="88" as="geometry" />
        </mxCell>
        <mxCell id="CBktLxQmQphNjtBsB0Eo-43" value="" style="whiteSpace=wrap;html=1;" vertex="1" parent="1">
          <mxGeometry x="530" y="360" width="220" height="200" as="geometry" />
        </mxCell>
        <mxCell id="CBktLxQmQphNjtBsB0Eo-8" value="minetracker-api" style="sketch=0;outlineConnect=0;fontColor=#232F3E;gradientColor=none;fillColor=#232F3D;strokeColor=none;dashed=0;verticalLabelPosition=top;verticalAlign=bottom;align=center;html=1;fontSize=12;fontStyle=0;aspect=fixed;pointerEvents=1;shape=mxgraph.aws4.servers;labelPosition=center;" vertex="1" parent="1">
          <mxGeometry x="611" y="470" width="58" height="58" as="geometry" />
        </mxCell>
        <mxCell id="CBktLxQmQphNjtBsB0Eo-44" value="pythonanywhere" style="text;strokeColor=none;align=center;fillColor=none;html=1;verticalAlign=middle;whiteSpace=wrap;rounded=0;" vertex="1" parent="1">
          <mxGeometry x="530" y="330" width="100" height="30" as="geometry" />
        </mxCell>
        <mxCell id="CBktLxQmQphNjtBsB0Eo-46" value="Flask API exposing data-providing endpoints" style="text;strokeColor=none;align=center;fillColor=none;html=1;verticalAlign=middle;whiteSpace=wrap;rounded=0;" vertex="1" parent="1">
          <mxGeometry x="590" y="370" width="100" height="70" as="geometry" />
        </mxCell>
        <mxCell id="CBktLxQmQphNjtBsB0Eo-47" style="edgeStyle=orthogonalEdgeStyle;rounded=0;orthogonalLoop=1;jettySize=auto;html=1;startArrow=classic;startFill=1;" edge="1" parent="1" source="CBktLxQmQphNjtBsB0Eo-8" target="CBktLxQmQphNjtBsB0Eo-7">
          <mxGeometry relative="1" as="geometry">
            <Array as="points">
              <mxPoint x="470" y="499" />
              <mxPoint x="470" y="744" />
            </Array>
          </mxGeometry>
        </mxCell>
        <mxCell id="CBktLxQmQphNjtBsB0Eo-48" value="Boto3 used to fetch&lt;br&gt;data from &lt;br&gt;DynamoDB tables" style="edgeLabel;html=1;align=center;verticalAlign=middle;resizable=0;points=[];" vertex="1" connectable="0" parent="CBktLxQmQphNjtBsB0Eo-47">
          <mxGeometry x="0.0772" y="1" relative="1" as="geometry">
            <mxPoint y="13" as="offset" />
          </mxGeometry>
        </mxCell>
        <mxCell id="CBktLxQmQphNjtBsB0Eo-49" value="" style="whiteSpace=wrap;html=1;" vertex="1" parent="1">
          <mxGeometry x="530" y="800" width="270" height="156" as="geometry" />
        </mxCell>
        <mxCell id="CBktLxQmQphNjtBsB0Eo-50" value="GitHub Pages" style="text;strokeColor=none;align=center;fillColor=none;html=1;verticalAlign=middle;whiteSpace=wrap;rounded=0;" vertex="1" parent="1">
          <mxGeometry x="530" y="770" width="90" height="30" as="geometry" />
        </mxCell>
        <mxCell id="CBktLxQmQphNjtBsB0Eo-52" style="edgeStyle=orthogonalEdgeStyle;rounded=0;orthogonalLoop=1;jettySize=auto;html=1;startArrow=classic;startFill=1;" edge="1" parent="1" source="CBktLxQmQphNjtBsB0Eo-51" target="CBktLxQmQphNjtBsB0Eo-8">
          <mxGeometry relative="1" as="geometry" />
        </mxCell>
        <mxCell id="CBktLxQmQphNjtBsB0Eo-53" value="Axios is used to&amp;nbsp;&lt;br&gt;hit the exposed API&lt;br&gt;and get game data" style="edgeLabel;html=1;align=center;verticalAlign=middle;resizable=0;points=[];" vertex="1" connectable="0" parent="CBktLxQmQphNjtBsB0Eo-52">
          <mxGeometry x="0.1474" y="-1" relative="1" as="geometry">
            <mxPoint as="offset" />
          </mxGeometry>
        </mxCell>
        <mxCell id="CBktLxQmQphNjtBsB0Eo-51" value="minetracker-frontend" style="sketch=0;outlineConnect=0;fontColor=#232F3E;gradientColor=none;fillColor=#232F3D;strokeColor=none;dashed=0;verticalLabelPosition=bottom;verticalAlign=top;align=center;html=1;fontSize=12;fontStyle=0;aspect=fixed;pointerEvents=1;shape=mxgraph.aws4.source_code;" vertex="1" parent="1">
          <mxGeometry x="615.75" y="866" width="48.5" height="66.37" as="geometry" />
        </mxCell>
        <mxCell id="CBktLxQmQphNjtBsB0Eo-58" style="edgeStyle=orthogonalEdgeStyle;rounded=0;orthogonalLoop=1;jettySize=auto;html=1;" edge="1" parent="1" source="CBktLxQmQphNjtBsB0Eo-57" target="CBktLxQmQphNjtBsB0Eo-51">
          <mxGeometry relative="1" as="geometry" />
        </mxCell>
        <mxCell id="CBktLxQmQphNjtBsB0Eo-59" value="Access frontend at&lt;br&gt;kennypeng15.github.io/minetracker" style="edgeLabel;html=1;align=center;verticalAlign=middle;resizable=0;points=[];" vertex="1" connectable="0" parent="CBktLxQmQphNjtBsB0Eo-58">
          <mxGeometry x="-0.3424" relative="1" as="geometry">
            <mxPoint x="13" as="offset" />
          </mxGeometry>
        </mxCell>
        <mxCell id="CBktLxQmQphNjtBsB0Eo-57" value="End user" style="shape=umlActor;verticalLabelPosition=bottom;verticalAlign=top;html=1;outlineConnect=0;" vertex="1" parent="1">
          <mxGeometry x="290" y="869.19" width="30" height="60" as="geometry" />
        </mxCell>
        <mxCell id="CBktLxQmQphNjtBsB0Eo-60" value="React app frontend is hosted on GitHub pages" style="text;strokeColor=none;align=center;fillColor=none;html=1;verticalAlign=middle;whiteSpace=wrap;rounded=0;" vertex="1" parent="1">
          <mxGeometry x="690" y="874.19" width="100" height="50" as="geometry" />
        </mxCell>
      </root>
    </mxGraphModel>
  </diagram>
</mxfile>
